<?xml version="1.0" standalone="no"?><!DOCTYPE svg PUBLIC "-//W3C//DTD SVG 1.1//EN" "http://www.w3.org/Graphics/SVG/1.1/DTD/svg11.dtd"><svg t="1773109342055" class="icon" viewBox="0 0 1024 1024" version="1.1" xmlns="http://www.w3.org/2000/svg" p-id="4898" xmlns:xlink="http://www.w3.org/1999/xlink" width="200" height="200"><path d="M512 512m-512 0a512 512 0 1 0 1024 0 512 512 0 1 0-1024 0Z" fill="#D8D8D8" p-id="4899"></path><path d="M511.963429 556.836571L327.131429 741.668571a31.524571 31.524571 0 0 1-22.381715 9.252572 31.670857 31.670857 0 0 1-22.381714-53.979429l184.795429-184.868571-185.380572-185.417143a31.707429 31.707429 0 0 1 44.873143-44.873143L512 467.2l184.832-184.868571a31.670857 31.670857 0 1 1 44.8 44.8L556.8 512l184.832 184.868571a31.707429 31.707429 0 0 1-44.836571 44.873143L512 556.836571z" fill="#FFFFFF" p-id="4900"></path></svg>